{"title":"The Clinic (2010)(DVDR2DivX)(Nl subs extern)(AC3 2.0) TBS","uid":6218057,"size":1557885889,"categoryP":"video","categoryS":"movies","magnet":"?xt=urn:btih:e09ba720e764c56b93c39c2f4c428d0ca28ec891&amp;dn=The+Clinic+%282010%29%28DVDR2DivX%29%28Nl+subs+extern%29%28AC3+2.0%29+TBS&amp;tr=udp%3A%2F%2Ftracker.openbittorrent.com%3A80&amp;tr=udp%3A%2F%2Fopen.demonii.com%3A1337&amp;tr=udp%3A%2F%2Ftracker.coppersurfer.tk%3A6969&amp;tr=udp%3A%2F%2Fexodus.desync.com%3A6969","seeders":0,"leechers":1,"uploader":"Vlinder.","files":-1,"time":1299232818,"description":"The Clinic (2010)(DVDR2DivX)(Nl subs extern) TBS \n\nAustraliÃƒÂ«\nHorror / Thriller\n100 minuten\n\ngeregisseerd door James Rabbitts\nmet Tabrett Bethell, Freya Stafford en Andy Whitfield\n\nBeth wordt wakker in een bad vol met ijs in een oud afgelegen slachthuis. Ze komt erachter dat haar baby verwijderd is uit haar lichaam. Als ze bezig is een uitweg te zoeken, komt ze drie vrouwen tegen die in hetzelfde schuitje als haar zitten. De vier vrouwen komen er al snel achter dat het ieder voor zich is, en dat ze zich bevinden in een dodelijk spel.\n\n\n\n\nStoryline:\n\nWhile traveling across country with her fiancÃƒÂ©, Beth wakes alone in an isolated clinic to a mother's worst nightmare. Just how far will she go to save her child?\n\n \n\nsource.........: The Clinic.2010.dvdrip.xvid-jon\nSize...........: 1.45 GB\nForm...........: DivX\nVideo codec....: Xvid\nBitrate........: 2126 kbit/s\nWith &amp; Height..: 720x320\nAudio..........: English\nAudio code.....: AC3 2.0\nSubs...........: Dutch (lossles)\nsubbing........: SRT\ncategorie......: Beeld\nBron...........: Retail\nTaal ..........: Nederlands ondertiteld (extern)\n\n\nGeneral\nFormat                           : DivX\nFormat/Info                      : Hack of AVI\nFile size                        : 1.45 GiB\nDuration                         : 1h 29mn\nOverall bit rate                 : 2 318 Kbps\n\nVideo\nID                               : 0\nFormat                           : MPEG-4 Visual\nFormat profile                   : Advanced Simple@L5\nFormat settings, BVOP            : Yes\nFormat settings, QPel            : No\nFormat settings, GMC             : No warppoints\nFormat settings, Matrix          : Default (H.263)\nMuxing mode                      : Packed bitstream\nCodec ID                         : DX50\nCodec ID/Hint                    : DivX 5\nDuration                         : 1h 29mn\nBit rate                         : 2 116 Kbps\nWidth                            : 720 pixels\nHeight                           : 320 pixels\nDisplay aspect ratio             : 2.25:1\nFrame rate                       : 25.000 fps\nColor space                      : YUV\nChroma subsampling               : 4:2:0\nBit depth                        : 8 bits\nScan type                        : Progressive\nBits/(Pixel*Frame)               : 0.367\nStream size                      : 1.32 GiB (91%)\nTitle                            : Video \nWriting library                  : XviD 1.2.1 (UTC 2008-12-04)\n\nAudio\nID                               : 1\nFormat                           : AC-3\nFormat/Info                      : Audio Coding 3\nMode extension                   : CM (complete main)\nCodec ID                         : 2000\nDuration                         : 1h 29mn\nBit rate mode                    : Constant\nBit rate                         : 192 Kbps\nChannel(s)                       : 2 channels\nChannel positions                : Front: L R\nSampling rate                    : 48.0 KHz\nBit depth                        : 16 bits\nStream size                      : 123 MiB (8%)\nAlignment                        : Split accross interleaves\nInterleave, duration             : 40 ms (1.00 video frame)\nInterleave, preload duration     : 500 ms\nTitle                            : Audio \n &lt;a href=&quot;\nhttp://www.moviemeter.nl/film/61573&quot; rel=&quot;nofollow&quot; target=&quot;_NEW&quot;&gt;\nhttp://www.moviemeter.nl/film/61573&lt;/a&gt; &lt;a href=&quot;\nhttp://www.imdb.com/title/tt1345772&quot; rel=&quot;nofollow&quot; target=&quot;_NEW&quot;&gt;\nhttp://www.imdb.com/title/tt1345772&lt;/a&gt;","torrent":{"xt":"urn:btih:e09ba720e764c56b93c39c2f4c428d0ca28ec891","amp;dn":"The+Clinic+%282010%29%28DVDR2DivX%29%28Nl+subs+extern%29%28AC3+2.0%29+TBS","amp;tr":["udp%3A%2F%2Ftracker.openbittorrent.com%3A80","udp%3A%2F%2Fopen.demonii.com%3A1337","udp%3A%2F%2Ftracker.coppersurfer.tk%3A6969","udp%3A%2F%2Fexodus.desync.com%3A6969"],"infoHash":"e09ba720e764c56b93c39c2f4c428d0ca28ec891","infoHashBuffer":{"type":"Buffer","data":[224,155,167,32,231,100,197,107,147,195,156,47,76,66,141,12,162,142,200,145]},"announce":[],"urlList":[]}}